<svg xmlns="http://www.w3.org/2000/svg" width="16" height="16" viewBox="0 0 9.829 11.293">
  <g id="ic_-_active-blocked" data-name="ic - active-blocked" transform="translate(-19 -3.772)">
    <path id="Path_523" data-name="Path 523" d="M-2.8-6.861-.318-9.34l-.387-.4L-2.8-7.648l-.981-.981-.387.387Zm-1.388-3.325a2.649,2.649,0,0,1,1.943-.807A2.649,2.649,0,0,1-.3-10.185,2.649,2.649,0,0,1,.508-8.242,2.649,2.649,0,0,1-.3-6.3a2.649,2.649,0,0,1-1.943.807A2.649,2.649,0,0,1-4.185-6.3a2.649,2.649,0,0,1-.807-1.943A2.649,2.649,0,0,1-4.185-10.185Z" transform="translate(28.321 20.557)" fill="#fff"/>
    <path id="Path_524" data-name="Path 524" d="M11,6a3.454,3.454,0,0,1,1,.145V5.5a1,1,0,0,0-1-1h-.5v-1a2.5,2.5,0,0,0-5,0v1H5a1,1,0,0,0-1,1v5a1,1,0,0,0,1,1H8.13A3.5,3.5,0,0,1,11,6ZM6.45,3.5a1.55,1.55,0,0,1,3.1,0v1H6.45Z" transform="translate(15 2.772)" fill="#fff"/>
  </g>
</svg>
