<svg xmlns="http://www.w3.org/2000/svg" width="16" height="16" viewBox="0 0 10.126 11.512">
  <g id="ic_-_inactive-blocked" data-name="ic - inactive-blocked" transform="translate(-9.086 -7)">
    <path id="Path_524" data-name="Path 524" d="M11,6a3.454,3.454,0,0,1,1,.145V5.5a1,1,0,0,0-1-1h-.5v-1a2.5,2.5,0,0,0-5,0v1H5a1,1,0,0,0-1,1v5a1,1,0,0,0,1,1H8.13A3.5,3.5,0,0,1,11,6ZM6.45,3.5a1.55,1.55,0,0,1,3.1,0v1H6.45Z" transform="translate(5.086 6)" fill="#fff"/>
    <path id="Path_525" data-name="Path 525" d="M-1.647-1.853A2.249,2.249,0,0,0,0-1.162a2.249,2.249,0,0,0,1.647-.69A2.249,2.249,0,0,0,2.338-3.5a2.249,2.249,0,0,0-.69-1.647A2.249,2.249,0,0,0,0-5.838a2.249,2.249,0,0,0-1.647.69A2.249,2.249,0,0,0-2.338-3.5,2.249,2.249,0,0,0-1.647-1.853Zm-.41-3.705A2.8,2.8,0,0,1,0-6.412a2.8,2.8,0,0,1,2.058.854A2.8,2.8,0,0,1,2.912-3.5a2.8,2.8,0,0,1-.854,2.058A2.8,2.8,0,0,1,0-.588a2.8,2.8,0,0,1-2.058-.854A2.8,2.8,0,0,1-2.912-3.5,2.8,2.8,0,0,1-2.058-5.558Z" transform="translate(16.3 19.1)" fill="#fff"/>
  </g>
</svg>
